# xmcd
#
# Track frame offsets: 
#        183
#        11483
#        24020
#        36670
#        47768
#        59183
#        69578
#        81438
#        92793
#        103903
#        116848
#        126280
#        137845
#        150160
#        160010
#        170068
#        179760
#        190460
#        204668
#        215128
#        225445
#        236810
#        248553
#        264145
#        274595
#        286593
#        297103
#        308708
#
# Disc length: 4284 seconds
#
# Revision: 2
# Processed by: cddbd v1.5.2PL0 Copyright (c) Steve Scherf et al.
# Submitted via: ExactAudioCopy v0.95b4
#
DISCID=9c10ba1c
DTITLE=Lefty Frizzell - Life's Like Poetry - Disc 05 of 12
DYEAR=1992
DGENRE=Country
TTITLE0=If You're Ever Lonely Darling (recorded 1958 - released 1992)
TTITLE1=Silence (1958)
TTITLE2=Release Me (1959)
TTITLE3=Our Love's No Bluff (recorded 1958 - released 1992)
TTITLE4=You're Humbuggin' Me (1958)
TTITLE5=She's Gone (recorded 1958 - released 1960)
TTITLE6=Cigarettes And Coffee Blues (1958)
TTITLE7=I Need Your Love (recorded 1958 - released 1984)
TTITLE8=My Bucket's Got A Hole In It (1959)
TTITLE9=I Love You A Thousand Ways (1959)
TTITLE10=If You've Got The Money, I've Got The Time (1959)
TTITLE11=Mom And Dad's Waltz (1959)
TTITLE12=I Want To Be With You Always (1959)
TTITLE13=Always Late (With Your Kisses) (1959)
TTITLE14=If You're Ever Lonely Darling (1959)
TTITLE15=Sin Will Be The Chaser For The Wine (recorded 1959 - released
TTITLE15=1984)
TTITLE16=Knock Again, True Love (1959)
TTITLE17=The Long Black Veil (1959)
TTITLE18=One Has-Been To Another (recorded 1959 - released 1984)
TTITLE19=Farther Than My Eyes Can See (1959)
TTITLE20=My Blues Will Pass (recorded 1959 - released 1960)
TTITLE21=Ballad Of The Blue And Grey (1959)
TTITLE22=That's All I Can Remember (1960)
TTITLE23=So What! Let It Rain (recorded 1960 - released 1961)
TTITLE24=What You Gonna Do, Leroy (1960)
TTITLE25=I Feel Sorry For Me (1961)
TTITLE26=Heaven's Plan (1961)
TTITLE27=Looking For You (1961)
EXTD=Life's Like Poetry - Disc 05 of 12\n© 1992 Bear Family Records
EXTT0=
EXTT1=
EXTT2=
EXTT3=
EXTT4=
EXTT5=
EXTT6=
EXTT7=
EXTT8=
EXTT9=
EXTT10=
EXTT11=
EXTT12=
EXTT13=
EXTT14=
EXTT15=
EXTT16=
EXTT17=
EXTT18=
EXTT19=
EXTT20=
EXTT21=
EXTT22=
EXTT23=
EXTT24=
EXTT25=
EXTT26=
EXTT27=
PLAYORDER=
